#Comment line ignore any data following # character 
#Hierarchical Translation and Rotation (.htr) file 
[Header]	
#Header keywords are followed by a single value 
FileType HTR		#Single word string
DataType HTRS		#Translation followed by rotation and scale data
FileVersion 1		#integer
NumSegments 84		#integer
NumFrames 2		#integer
DataFrameRate 30		#integer, data frame rate in this file
EulerRotationOrder ZYX
CalibrationUnits mm
RotationUnits Degrees
GlobalAxisofGravity Y
BoneLengthAxis Y
ScaleFactor 1.00
[SegmentNames&Hierarchy]
#CHILD	PARENT
MASTER GLOBAL
root MASTER
chest root
L_mid_tent01 root
R_mid_tent01 root
spine01 root
Bip01_Neck chest
L_humerus chest
R_humerus chest
weapon_bone chest
Bip01_Head Bip01_Neck
eye_left_bone Bip01_Head
eye_right_bone Bip01_Head
L_forearm L_humerus
L_front_hand L_forearm
L_weapon_bone L_forearm
L_front_hand01_01 L_front_hand
L_front_hand02_01 L_front_hand
L_front_hand03_01 L_front_hand
L_front_hand01_02 L_front_hand01_01
L_front_hand02_02 L_front_hand02_01
L_front_hand03_02 L_front_hand03_01
R_forearm R_humerus
R_front_hand R_forearm
R_weapon_bone R_forearm
R_front_hand01_01 R_front_hand
R_front_hand02_01 R_front_hand
R_front_hand03_01 R_front_hand
R_front_hand01_02 R_front_hand01_01
R_front_hand02_02 R_front_hand02_01
R_front_hand03_02 R_front_hand03_01
null_rope01_connect L_mid_tent01
Rope1_Seg01 null_rope01_connect
Rope1_Seg02 Rope1_Seg01
Rope1_Seg03 Rope1_Seg02
Rope1_Seg04 Rope1_Seg03
Rope1_Seg05 Rope1_Seg04
Rope1_Seg06 Rope1_Seg05
Rope1_Seg07 Rope1_Seg06
Rope1_Seg09 Rope1_Seg07
L_mid_hand01 Rope1_Seg09
L_mid_hand02 Rope1_Seg09
L_mid_hand03 Rope1_Seg09
null_rope02_connect R_mid_tent01
Rope2_Seg01 null_rope02_connect
Rope2_Seg02 Rope2_Seg01
Rope2_Seg03 Rope2_Seg02
Rope2_Seg04 Rope2_Seg03
Rope2_Seg05 Rope2_Seg04
Rope2_Seg06 Rope2_Seg05
Rope2_Seg07 Rope2_Seg06
Rope2_Seg09 Rope2_Seg07
R_mid_hand01 Rope2_Seg09
R_mid_hand02 Rope2_Seg09
R_mid_hand03 Rope2_Seg09
spine02 spine01
spine03 spine02
pelvis spine03
null_rope03_connect pelvis
null_rope04_connect pelvis
Rope3_Seg01 null_rope03_connect
Rope3_Seg02 Rope3_Seg01
Rope3_Seg03 Rope3_Seg02
Rope3_Seg04 Rope3_Seg03
Rope3_Seg05 Rope3_Seg04
Rope3_Seg06 Rope3_Seg05
Rope3_Seg07 Rope3_Seg06
Rope3_Seg08 Rope3_Seg07
Rope3_Seg09 Rope3_Seg08
R_rear_hand01 Rope3_Seg09
R_rear_hand02 Rope3_Seg09
R_rear_hand03 Rope3_Seg09
Rope4_Seg01 null_rope04_connect
Rope4_Seg02 Rope4_Seg01
Rope4_Seg03 Rope4_Seg02
Rope4_Seg04 Rope4_Seg03
Rope4_Seg05 Rope4_Seg04
Rope4_Seg06 Rope4_Seg05
Rope4_Seg07 Rope4_Seg06
Rope4_Seg08 Rope4_Seg07
Rope4_Seg09 Rope4_Seg08
L_rear_hand01 Rope4_Seg09
L_rear_hand02 Rope4_Seg09
L_rear_hand03 Rope4_Seg09
[BasePosition]
#SegmentName Tx, Ty, Tz, Rx, Ry, Rz, BoneLength
MASTER 0.000000 0.000000 0.000000 -90.000000 0.000000 0.000000 10.000000 
root 0.000000 0.000000 0.000000 0.000000 0.000000 0.000000 10.000000 
chest 0.000000 0.000000 0.000000 0.000000 0.000000 0.000000 10.000000 
L_mid_tent01 0.000000 0.000000 0.000000 0.000000 0.000000 0.000000 10.000000 
R_mid_tent01 0.000000 0.000000 0.000000 0.000000 0.000000 0.000000 10.000000 
spine01 0.000000 0.000000 0.000000 0.000000 0.000000 0.000000 10.000000 
Bip01_Neck 0.000000 0.000000 0.000000 0.000000 0.000000 0.000000 10.000000 
L_humerus 0.000000 0.000000 0.000000 0.000000 0.000000 0.000000 10.000000 
R_humerus 0.000000 0.000000 0.000000 0.000000 0.000000 0.000000 10.000000 
weapon_bone 0.000000 0.000000 0.000000 0.000000 0.000000 0.000000 10.000000 
Bip01_Head 0.000000 0.000000 0.000000 0.000000 0.000000 0.000000 10.000000 
eye_left_bone 0.000000 0.000000 0.000000 0.000000 0.000000 0.000000 10.000000 
eye_right_bone 0.000000 0.000000 0.000000 0.000000 0.000000 0.000000 10.000000 
L_forearm 0.000000 0.000000 0.000000 0.000000 0.000000 0.000000 10.000000 
L_front_hand 0.000000 0.000000 0.000000 0.000000 0.000000 0.000000 10.000000 
L_weapon_bone 0.000000 0.000000 0.000000 0.000000 0.000000 0.000000 10.000000 
L_front_hand01_01 0.000000 0.000000 0.000000 0.000000 0.000000 0.000000 10.000000 
L_front_hand02_01 0.000000 0.000000 0.000000 0.000000 0.000000 0.000000 10.000000 
L_front_hand03_01 0.000000 0.000000 0.000000 0.000000 0.000000 0.000000 10.000000 
L_front_hand01_02 0.000000 0.000000 0.000000 0.000000 0.000000 0.000000 10.000000 
L_front_hand02_02 0.000000 0.000000 0.000000 0.000000 0.000000 0.000000 10.000000 
L_front_hand03_02 0.000000 0.000000 0.000000 0.000000 0.000000 0.000000 10.000000 
R_forearm 0.000000 0.000000 0.000000 0.000000 0.000000 0.000000 10.000000 
R_front_hand 0.000000 0.000000 0.000000 0.000000 0.000000 0.000000 10.000000 
R_weapon_bone 0.000000 0.000000 0.000000 0.000000 0.000000 0.000000 10.000000 
R_front_hand01_01 0.000000 0.000000 0.000000 0.000000 0.000000 0.000000 10.000000 
R_front_hand02_01 0.000000 0.000000 0.000000 0.000000 0.000000 0.000000 10.000000 
R_front_hand03_01 0.000000 0.000000 0.000000 0.000000 0.000000 0.000000 10.000000 
R_front_hand01_02 0.000000 0.000000 0.000000 0.000000 0.000000 0.000000 10.000000 
R_front_hand02_02 0.000000 0.000000 0.000000 0.000000 0.000000 0.000000 10.000000 
R_front_hand03_02 0.000000 0.000000 0.000000 0.000000 0.000000 0.000000 10.000000 
null_rope01_connect 0.000000 0.000000 0.000000 0.000000 0.000000 0.000000 10.000000 
Rope1_Seg01 0.000000 0.000000 0.000000 0.000000 0.000000 0.000000 10.000000 
Rope1_Seg02 0.000000 0.000000 0.000000 0.000000 0.000000 0.000000 10.000000 
Rope1_Seg03 0.000000 0.000000 0.000000 0.000000 0.000000 0.000000 10.000000 
Rope1_Seg04 0.000000 0.000000 0.000000 0.000000 0.000000 0.000000 10.000000 
Rope1_Seg05 0.000000 0.000000 0.000000 0.000000 0.000000 0.000000 10.000000 
Rope1_Seg06 0.000000 0.000000 0.000000 0.000000 0.000000 0.000000 10.000000 
Rope1_Seg07 0.000000 0.000000 0.000000 0.000000 0.000000 0.000000 10.000000 
Rope1_Seg09 0.000000 0.000000 0.000000 0.000000 0.000000 0.000000 10.000000 
L_mid_hand01 0.000000 0.000000 0.000000 0.000000 0.000000 0.000000 10.000000 
L_mid_hand02 0.000000 0.000000 0.000000 0.000000 0.000000 0.000000 10.000000 
L_mid_hand03 0.000000 0.000000 0.000000 0.000000 0.000000 0.000000 10.000000 
null_rope02_connect 0.000000 0.000000 0.000000 0.000000 0.000000 0.000000 10.000000 
Rope2_Seg01 0.000000 0.000000 0.000000 0.000000 0.000000 0.000000 10.000000 
Rope2_Seg02 0.000000 0.000000 0.000000 0.000000 0.000000 0.000000 10.000000 
Rope2_Seg03 0.000000 0.000000 0.000000 0.000000 0.000000 0.000000 10.000000 
Rope2_Seg04 0.000000 0.000000 0.000000 0.000000 0.000000 0.000000 10.000000 
Rope2_Seg05 0.000000 0.000000 0.000000 0.000000 0.000000 0.000000 10.000000 
Rope2_Seg06 0.000000 0.000000 0.000000 0.000000 0.000000 0.000000 10.000000 
Rope2_Seg07 0.000000 0.000000 0.000000 0.000000 0.000000 0.000000 10.000000 
Rope2_Seg09 0.000000 0.000000 0.000000 0.000000 0.000000 0.000000 10.000000 
R_mid_hand01 0.000000 0.000000 0.000000 0.000000 0.000000 0.000000 10.000000 
R_mid_hand02 0.000000 0.000000 0.000000 0.000000 0.000000 0.000000 10.000000 
R_mid_hand03 0.000000 0.000000 0.000000 0.000000 0.000000 0.000000 10.000000 
spine02 0.000000 0.000000 0.000000 0.000000 0.000000 0.000000 10.000000 
spine03 0.000000 0.000000 0.000000 0.000000 0.000000 0.000000 10.000000 
pelvis 0.000000 0.000000 0.000000 0.000000 0.000000 0.000000 10.000000 
null_rope03_connect 0.000000 0.000000 0.000000 0.000000 0.000000 0.000000 10.000000 
null_rope04_connect 0.000000 0.000000 0.000000 0.000000 0.000000 0.000000 10.000000 
Rope3_Seg01 0.000000 0.000000 0.000000 0.000000 0.000000 0.000000 10.000000 
Rope3_Seg02 0.000000 0.000000 0.000000 0.000000 0.000000 0.000000 10.000000 
Rope3_Seg03 0.000000 0.000000 0.000000 0.000000 0.000000 0.000000 10.000000 
Rope3_Seg04 0.000000 0.000000 0.000000 0.000000 0.000000 0.000000 10.000000 
Rope3_Seg05 0.000000 0.000000 0.000000 0.000000 0.000000 0.000000 10.000000 
Rope3_Seg06 0.000000 0.000000 0.000000 0.000000 0.000000 0.000000 10.000000 
Rope3_Seg07 0.000000 0.000000 0.000000 0.000000 0.000000 0.000000 10.000000 
Rope3_Seg08 0.000000 0.000000 0.000000 0.000000 0.000000 0.000000 10.000000 
Rope3_Seg09 0.000000 0.000000 0.000000 0.000000 0.000000 0.000000 10.000000 
R_rear_hand01 0.000000 0.000000 0.000000 0.000000 0.000000 0.000000 10.000000 
R_rear_hand02 0.000000 0.000000 0.000000 0.000000 0.000000 0.000000 10.000000 
R_rear_hand03 0.000000 0.000000 0.000000 0.000000 0.000000 0.000000 10.000000 
Rope4_Seg01 0.000000 0.000000 0.000000 0.000000 0.000000 0.000000 10.000000 
Rope4_Seg02 0.000000 0.000000 0.000000 0.000000 0.000000 0.000000 10.000000 
Rope4_Seg03 0.000000 0.000000 0.000000 0.000000 0.000000 0.000000 10.000000 
Rope4_Seg04 0.000000 0.000000 0.000000 0.000000 0.000000 0.000000 10.000000 
Rope4_Seg05 0.000000 0.000000 0.000000 0.000000 0.000000 0.000000 10.000000 
Rope4_Seg06 0.000000 0.000000 0.000000 0.000000 0.000000 0.000000 10.000000 
Rope4_Seg07 0.000000 0.000000 0.000000 0.000000 0.000000 0.000000 10.000000 
Rope4_Seg08 0.000000 0.000000 0.000000 0.000000 0.000000 0.000000 10.000000 
Rope4_Seg09 0.000000 0.000000 0.000000 0.000000 0.000000 0.000000 10.000000 
L_rear_hand01 0.000000 0.000000 0.000000 0.000000 0.000000 0.000000 10.000000 
L_rear_hand02 0.000000 0.000000 0.000000 0.000000 0.000000 0.000000 10.000000 
L_rear_hand03 0.000000 0.000000 0.000000 0.000000 0.000000 0.000000 10.000000 
#Beginning of Data. Separated by tabs
#Fr	Tx	Ty	Tz	Rx	Ry	Rz	SF
[MASTER]
4 -0.000033 239.999954 1144.138306 0.001660 0.001660 0.001660 1169.039185
5 -0.000045 318.900421 1528.606567 0.001660 0.001660 0.001660 1561.517090
[root]
4 -16.502304 -2.541218 1459.482788 -91.663651 -10.136365 -89.658936 1459.578247
5 -16.502302 -10.427341 1466.511230 -91.622948 -9.232553 -89.781944 1466.641113
[chest]
4 -84.512650 -34.090519 0.000000 -1.104169 2.906327 -177.555725 91.129311
5 -84.512650 -34.090519 0.000000 -0.532447 4.018178 -169.901794 91.129311
[L_mid_tent01]
4 27.299067 22.179131 -249.918701 -11.251789 19.533350 41.842289 252.381683
5 27.299068 22.179140 -249.918701 -7.487034 20.988623 51.514416 252.381683
[R_mid_tent01]
4 23.228794 24.509907 226.238495 -176.743332 -16.513794 42.214966 228.744751
5 23.228794 24.509907 226.238495 179.767975 -15.493022 47.874641 228.744751
[spine01]
4 -0.361383 -0.195265 0.000000 0.001950 0.001306 22.374409 0.410763
5 -0.361383 -0.195265 0.000000 0.001951 0.001305 22.456774 0.410763
[Bip01_Neck]
4 165.484543 71.581718 0.000119 176.643677 -1.657967 43.431911 180.302734
5 165.484543 71.581718 0.000119 176.643677 -1.657967 43.431911 180.302734
[L_humerus]
4 -13.983130 -135.272980 -120.471481 -174.601334 80.066032 -78.422119 181.680161
5 -13.983130 -135.272980 -120.471481 174.748169 66.946404 -88.934822 181.680161
[R_humerus]
4 -13.983309 -135.273102 125.287651 166.552368 -61.059147 -64.840897 184.909012
5 -13.983309 -135.273102 125.287651 176.347763 -42.956684 -75.151367 184.909012
[weapon_bone]
4 235.964890 -300.705902 0.000000 0.000000 -89.951546 -128.212341 382.234833
5 235.964890 -300.705902 0.000000 0.000000 -89.951546 -128.212341 382.234833
[Bip01_Head]
4 213.443542 185.717590 11.750393 4.962490 2.797846 -43.898743 283.173523
5 213.443344 185.718323 11.741537 4.962490 2.797846 -43.898750 283.173492
[eye_left_bone]
4 -24.626970 125.451866 -64.772606 0.000000 -90.000000 -99.840431 143.318359
5 -24.626970 125.451866 -64.772606 0.000000 -90.000000 -99.840431 143.318359
[eye_right_bone]
4 -24.626970 125.451866 64.327362 0.000000 -89.965736 80.156380 143.117676
5 -24.626970 125.451866 64.327362 0.000000 -89.965736 80.156380 143.117676
[L_forearm]
4 322.776093 0.000000 -0.000119 0.000442 -0.002305 -111.724373 322.776093
5 322.776093 0.000000 -0.000119 0.000403 -0.002312 -109.764969 322.776093
[L_front_hand]
4 241.149185 -0.042021 -3.300071 -178.524078 -1.724030 -32.024258 241.171753
5 241.149185 -0.042021 -3.300071 -178.525467 -1.725222 -31.931633 241.171753
[L_weapon_bone]
4 156.183838 0.000000 0.000000 0.000014 0.000007 0.000001 156.183838
5 156.183838 0.000000 0.000000 0.000014 0.000007 0.000001 156.183838
[L_front_hand01_01]
4 86.095154 20.947098 -0.655860 -0.366594 -0.477154 75.385574 88.609184
5 86.095154 20.947098 -0.655860 -0.366594 -0.477154 75.385574 88.609184
[L_front_hand02_01]
4 86.935165 -11.437475 24.513514 154.399796 -59.883835 -61.369587 91.046425
5 86.935165 -11.437475 24.513514 154.399796 -59.883835 -61.369587 91.046425
[L_front_hand03_01]
4 86.637497 -14.123976 -20.424902 -153.913879 58.118130 -62.702892 90.126129
5 86.637497 -14.123976 -20.424902 -153.913849 58.118122 -62.702866 90.126129
[L_front_hand01_02]
4 71.020905 -0.000179 0.000030 0.000322 -0.002325 -105.780128 71.020905
5 71.020905 -0.000179 0.000030 0.000321 -0.002325 -105.734940 71.020905
[L_front_hand02_02]
4 71.020927 -0.000119 0.000060 0.000322 -0.002325 -105.780128 71.020927
5 71.020927 -0.000119 0.000060 0.000321 -0.002325 -105.734940 71.020927
[L_front_hand03_02]
4 71.020905 -0.000060 0.000060 0.000322 -0.002325 -105.780128 71.020905
5 71.020905 -0.000060 0.000060 0.000321 -0.002325 -105.734940 71.020905
[R_forearm]
4 322.776428 -0.000060 0.000030 0.201037 0.068375 -109.891632 322.776428
5 322.776428 -0.000060 0.000030 0.206178 0.062011 -107.928322 322.776428
[R_front_hand]
4 238.847015 -0.006795 2.210259 -1.620204 -10.845423 -31.755011 238.857239
5 238.847015 -0.006795 2.210259 -1.636780 -10.840458 -31.644939 238.857239
[R_weapon_bone]
4 155.664093 0.002503 -0.000030 0.003487 0.001180 -90.988930 155.664078
5 155.664093 0.002503 -0.000030 0.003487 0.001180 -90.988930 155.664078
[R_front_hand01_01]
4 87.624611 14.231146 22.918642 -154.633499 -59.950642 61.746071 91.683487
5 87.624611 14.231146 22.918642 -154.633499 -59.950619 61.746044 91.683487
[R_front_hand02_01]
4 89.356956 14.367283 -19.491137 154.602661 58.302849 63.744381 92.579636
5 89.356956 14.367283 -19.491137 154.602661 58.302849 63.744389 92.579636
[R_front_hand03_01]
4 87.286232 -22.307278 -0.143439 0.162155 -0.423168 -75.767921 90.091743
5 87.286232 -22.307278 -0.143439 0.162155 -0.423168 -75.767921 90.091743
[R_front_hand01_02]
4 71.020905 0.000060 0.000119 0.002323 -0.000334 106.381714 71.020905
5 71.020905 0.000060 0.000119 0.002323 -0.000334 106.381706 71.020905
[R_front_hand02_02]
4 71.020844 -0.000030 -0.000119 0.002323 -0.000334 106.381714 71.020836
5 71.020844 -0.000030 -0.000119 0.002323 -0.000334 106.381706 71.020836
[R_front_hand03_02]
4 71.020905 0.000000 0.000030 0.002323 -0.000334 106.381714 71.020905
5 71.020905 0.000000 0.000030 0.002323 -0.000334 106.381706 71.020905
[null_rope01_connect]
4 328.732483 0.000000 -0.000238 -154.268997 -66.120903 -149.212997 328.732483
5 328.732483 0.000000 -0.000238 -154.054916 -66.319031 -159.476791 328.732483
[Rope1_Seg01]
4 -0.000037 0.000036 0.000144 136.937775 24.442516 -125.106758 0.000153
5 -0.000037 0.000035 0.000141 -165.618774 40.062305 -131.048920 0.000150
[Rope1_Seg02]
4 139.999863 -0.000179 0.000000 124.830414 1.540666 -9.802261 139.999863
5 139.999863 -0.000179 0.000000 24.919102 -8.430295 -4.926631 139.999863
[Rope1_Seg03]
4 139.999924 0.000060 -0.000060 6.076326 -10.745960 8.527510 139.999924
5 139.999924 0.000060 -0.000060 14.399356 -14.133384 1.984970 139.999924
[Rope1_Seg04]
4 139.999924 -0.000060 -0.000119 12.805604 -10.259800 1.335749 139.999924
5 139.999924 -0.000060 -0.000119 11.376683 -12.699779 -0.588392 139.999924
[Rope1_Seg05]
4 139.999832 0.000119 -0.000060 12.379916 -4.186571 -5.148133 139.999832
5 139.999832 0.000119 -0.000060 12.051781 -1.568120 -11.897244 139.999832
[Rope1_Seg06]
4 139.999954 0.000119 -0.000060 3.390576 -2.040247 -0.558542 139.999954
5 139.999954 0.000119 -0.000060 5.077928 -1.765442 -3.374535 139.999954
[Rope1_Seg07]
4 139.999985 0.000060 0.000000 1.873790 -1.246087 -0.226478 139.999985
5 139.999985 0.000060 0.000000 2.788320 -1.258281 -1.493447 139.999985
[Rope1_Seg09]
4 121.602913 0.000119 -0.000089 -89.793175 -1.359789 0.847147 121.602913
5 121.602913 0.000119 -0.000089 -89.793175 -1.359789 0.847147 121.602913
[L_mid_hand01]
4 103.859421 1.038730 8.195221 128.844925 -66.712723 -37.020279 104.187431
5 103.859421 1.038730 8.195221 130.095490 -67.358856 -38.382183 104.187431
[L_mid_hand02]
4 105.572853 -4.139662 -10.864139 -167.882584 43.183556 -71.986374 106.211075
5 105.572853 -4.139662 -10.864139 -168.652405 43.348949 -73.107704 106.211075
[L_mid_hand03]
4 104.641464 17.579376 -3.913581 -6.373020 17.687300 73.717346 106.179977
5 104.641464 17.579376 -3.913581 -6.108395 17.779198 74.588531 106.179977
[null_rope02_connect]
4 328.732849 0.000179 -0.000119 -129.055771 74.221710 -6.333547 328.732849
5 328.732849 0.000179 -0.000119 -122.990807 75.468552 5.786808 328.732849
[Rope2_Seg01]
4 0.000040 0.000144 0.000000 -162.268036 35.047436 -44.495960 0.000150
5 0.000041 0.000141 0.000000 -145.930984 48.769081 -37.357067 0.000147
[Rope2_Seg02]
4 139.999741 -0.000060 -0.000119 -52.510777 11.734718 8.770939 139.999756
5 139.999741 -0.000060 -0.000119 -20.462736 9.519447 7.102531 139.999756
[Rope2_Seg03]
4 140.000107 0.000030 0.000000 -50.502300 8.176418 19.930958 140.000107
5 140.000107 0.000030 0.000000 -54.506313 21.164457 17.287169 140.000107
[Rope2_Seg04]
4 139.999802 0.000000 -0.000060 35.175945 -12.920401 -18.901880 139.999802
5 139.999802 0.000000 -0.000060 25.857016 -20.712708 -12.895684 139.999802
[Rope2_Seg05]
4 139.999985 -0.000060 0.000119 11.096635 -9.479457 -6.532578 139.999985
5 139.999985 -0.000060 0.000119 6.124615 -7.711358 -3.971233 139.999985
[Rope2_Seg06]
4 139.999893 -0.000030 -0.000119 2.245589 -3.664845 -0.995693 139.999893
5 139.999893 -0.000030 -0.000119 1.090063 -2.571178 -0.443313 139.999893
[Rope2_Seg07]
4 139.999893 0.000060 -0.000060 1.154194 -2.209137 -0.510334 139.999893
5 139.999893 0.000060 -0.000060 0.563658 -1.515582 -0.233318 139.999893
[Rope2_Seg09]
4 121.338966 0.000089 -0.000060 33.793236 -1.359788 -0.847141 121.338966
5 121.338966 0.000089 -0.000060 33.793236 -1.359788 -0.847141 121.338966
[R_mid_hand01]
4 104.680779 11.144459 -10.335981 -17.254469 44.921875 68.987289 105.778534
5 104.680779 11.144459 -10.335981 -16.480762 45.159000 70.079010 105.778534
[R_mid_hand02]
4 104.070427 2.443552 8.231699 50.757656 -66.920883 37.459167 104.424065
5 104.070427 2.443552 8.231699 49.518703 -67.538940 38.801071 104.424065
[R_mid_hand03]
4 106.028137 -11.221827 -5.996406 -176.797501 15.492968 -75.452667 106.788818
5 106.028137 -11.221827 -5.996406 -177.019348 15.538846 -76.294624 106.788818
[spine02]
4 129.756927 0.001550 0.000119 0.089034 -4.297753 -8.661059 129.756927
5 129.756927 0.001550 0.000119 -0.105796 -4.293687 -5.985590 129.756927
[spine03]
4 78.614059 0.081754 -4.898987 1.757889 4.363535 13.837605 78.766594
5 78.614052 0.081743 -4.898987 1.636171 4.404731 12.169669 78.766586
[pelvis]
4 169.435242 0.051022 0.000000 -0.013764 -0.007204 8.729342 169.435257
5 169.435242 0.051022 0.000000 -0.008837 -0.012777 5.354843 169.435257
[null_rope03_connect]
4 -1.257226 -2.466202 137.391083 -159.784973 -89.019417 -136.309219 137.418976
5 -1.257226 -2.466202 137.391083 -157.591675 -88.817993 -137.132217 137.418976
[null_rope04_connect]
4 -1.259640 -2.480268 -137.844437 -159.784973 -89.019417 -136.309219 137.872513
5 -1.259640 -2.480268 -137.844437 -157.591675 -88.817993 -137.132217 137.872513
[Rope3_Seg01]
4 0.000000 0.000000 0.000000 -130.276611 6.574357 -73.760117 0.000000
5 0.000000 0.000000 0.000000 -130.502945 -0.337111 -69.105362 0.000000
[Rope3_Seg02]
4 139.999924 -0.000119 0.000060 0.357771 -4.556173 -3.225297 139.999924
5 139.999924 -0.000119 0.000060 1.046396 -6.863921 -4.848798 139.999924
[Rope3_Seg03]
4 139.999924 -0.000119 0.000119 0.271109 -4.204355 -6.792420 139.999924
5 139.999924 -0.000119 0.000119 0.861422 -6.174256 -7.737648 139.999924
[Rope3_Seg04]
4 139.999924 0.000119 0.000000 1.024574 -4.261860 -0.090906 139.999924
5 139.999924 0.000119 0.000000 2.391709 -5.785946 -0.842370 139.999924
[Rope3_Seg05]
4 139.999924 -0.000238 0.000060 2.053333 -3.674360 14.665034 139.999924
5 139.999924 -0.000238 0.000060 5.048722 -5.778777 12.626722 139.999924
[Rope3_Seg06]
4 139.999893 -0.000119 -0.000060 0.714232 -2.209375 8.563584 139.999893
5 139.999893 -0.000119 -0.000060 2.997791 -4.180681 9.179949 139.999893
[Rope3_Seg07]
4 139.999771 0.000060 -0.000119 0.366519 -1.546426 5.617811 139.999771
5 139.999771 0.000060 -0.000119 1.877655 -2.847872 6.663190 139.999771
[Rope3_Seg08]
4 139.999985 -0.000060 0.000000 0.361708 -0.799393 2.996654 139.999985
5 139.999985 -0.000060 0.000000 0.951203 -0.943668 2.437351 139.999985
[Rope3_Seg09]
4 90.185997 -0.000179 -0.000060 89.793228 -1.359877 -0.847183 90.185997
5 90.185997 -0.000179 -0.000060 89.793228 -1.359877 -0.847183 90.185997
[R_rear_hand01]
4 103.366196 -6.073594 -10.757982 -177.180405 24.516863 -72.637703 104.101845
5 103.366196 -6.073594 -10.757982 -177.574921 24.553762 -73.582504 104.101845
[R_rear_hand02]
4 100.509819 12.039542 -7.992327 -13.721433 36.601822 70.754135 101.543350
5 100.509819 12.039542 -7.992327 -13.089580 36.801193 71.803032 101.543350
[R_rear_hand03]
4 101.539970 5.215704 5.435467 72.550484 -70.706764 20.388565 101.819031
5 101.539970 5.215704 5.435467 71.770485 -71.527267 21.210228 101.819031
[Rope4_Seg01]
4 0.000010 0.000036 -0.000144 42.716908 16.143467 -121.111412 0.000149
5 0.000010 0.000035 -0.000141 44.333038 6.532669 -124.758011 0.000146
[Rope4_Seg02]
4 139.999985 0.000060 0.000119 0.174716 1.903733 1.483573 139.999985
5 139.999985 0.000060 0.000119 -0.703961 0.771253 -1.946905 139.999985
[Rope4_Seg03]
4 139.999924 0.000000 -0.000238 0.771781 3.284254 6.117436 139.999924
5 139.999924 0.000000 -0.000238 0.691222 -0.957282 1.534124 139.999924
[Rope4_Seg04]
4 139.999985 0.000000 0.000119 0.067271 8.848193 0.463230 139.999985
5 139.999985 0.000000 0.000119 -14.355623 12.155720 -29.743334 139.999985
[Rope4_Seg05]
4 139.999802 -0.000060 -0.000119 -1.420490 2.734685 -29.169127 139.999802
5 139.999802 -0.000060 -0.000119 -6.670526 10.720056 -15.539490 139.999802
[Rope4_Seg06]
4 139.999924 0.000000 0.000060 -0.754580 1.154340 -6.226172 139.999924
5 139.999924 0.000000 0.000060 -1.112836 3.182085 -3.765523 139.999924
[Rope4_Seg07]
4 139.999802 0.000000 0.000000 -0.394083 0.667900 -3.379107 139.999802
5 139.999802 0.000000 0.000000 -0.444095 1.740127 -1.988647 139.999802
[Rope4_Seg08]
4 139.999924 0.000000 0.000119 -1.719468 0.333430 -1.625771 139.999924
5 139.999924 0.000000 0.000119 -1.613560 0.537237 -0.604401 139.999924
[Rope4_Seg09]
4 90.185791 0.000060 0.000060 -135.617828 2.228885 0.850567 90.185791
5 90.185791 0.000060 0.000060 -135.617828 2.228885 0.850567 90.185791
[L_rear_hand01]
4 101.696655 -8.392275 -7.654577 -13.731910 -36.595154 109.269127 102.329041
5 101.696655 -8.392275 -7.654577 -13.100018 -36.799313 108.206543 102.329041
[L_rear_hand02]
4 102.726799 -1.568258 5.773216 72.566826 70.694969 159.630798 102.900848
5 102.726799 -1.568258 5.773216 71.770462 71.527245 158.789749 102.900848
[L_rear_hand03]
4 104.552910 9.721220 -10.420293 -177.172852 -24.512310 -107.383331 105.519653
5 104.552910 9.721220 -10.420293 -177.573471 -24.553633 -106.424133 105.519653
